/* XPM */
static char *_2c2a074b4c84d37d5b4bae6f3f116cfUVZF8NwcoRivD38S[] = {
/* columns rows colors chars-per-pixel */
"32 32 179 2 ",
"   c #090101",
".  c #01010D",
"X  c #0D0708",
"o  c #110707",
"O  c #140A0A",
"+  c #190D0D",
"@  c #090815",
"#  c #0E0E1A",
"$  c #091A1F",
"%  c #1C1212",
"&  c #1C1812",
"*  c #251006",
"=  c #271C0F",
"-  c #221515",
";  c #22181A",
":  c #2D1D1C",
">  c #331F16",
",  c #25241F",
"<  c #362217",
"1  c #362218",
"2  c #3B261B",
"3  c #3A281D",
"4  c #041C24",
"5  c #091C24",
"6  c #051E29",
"7  c #03232C",
"8  c #0C252D",
"9  c #0F2A2F",
"0  c #18282C",
"q  c #032531",
"w  c #062B34",
"e  c #0C2D34",
"r  c #0E2E39",
"t  c #132C33",
"y  c #1C2F36",
"u  c #0C3039",
"i  c #1A3136",
"p  c #15343B",
"a  c #1B353C",
"s  c #113036",
"d  c #222224",
"f  c #2A2122",
"g  c #242C2C",
"h  c #2A2B2A",
"j  c #312424",
"k  c #362E27",
"l  c #372F29",
"z  c #3A2B2A",
"x  c #382626",
"c  c #353128",
"v  c #3B332B",
"b  c #252D30",
"n  c #282F30",
"m  c #2A3335",
"M  c #2B393D",
"N  c #27373A",
"B  c #3A3739",
"V  c #333B3C",
"C  c #3B3A3A",
"Z  c #363637",
"A  c #422B1D",
"S  c #462E20",
"D  c #482F20",
"F  c #442C2C",
"G  c #4C3323",
"H  c #42372F",
"J  c #483A2C",
"K  c #583B27",
"L  c #533B2C",
"P  c #5C3E2A",
"I  c #413333",
"U  c #433B31",
"Y  c #413B3B",
"T  c #533E3E",
"R  c #583E3E",
"E  c #563F30",
"W  c #3B413F",
"Q  c #5A422E",
"!  c #5B4332",
"~  c #65442E",
"^  c #614835",
"/  c #644B39",
"(  c #1D3740",
")  c #1D3940",
"_  c #2D3C42",
"`  c #243C43",
"'  c #343E42",
"]  c #3C3F41",
"[  c #433F41",
"{  c #354143",
"}  c #3C4345",
"|  c #35424A",
" . c #3F4A49",
".. c #454343",
"X. c #434549",
"o. c #414A4B",
"O. c #484949",
"+. c #564646",
"@. c #424E50",
"#. c #4F4E52",
"$. c #545354",
"%. c #5A5454",
"&. c #5E5A5B",
"*. c #59575A",
"=. c #624A4A",
"-. c #6F4B4A",
";. c #615353",
":. c #6D5352",
">. c #645C5C",
",. c #755454",
"<. c #745857",
"1. c #7B5C5C",
"2. c #705F5F",
"3. c #586465",
"4. c #546769",
"5. c #656263",
"6. c #67676B",
"7. c #756262",
"8. c #796869",
"9. c #7C7778",
"0. c #835C5B",
"q. c #836665",
"w. c #836D6D",
"e. c #8C6B6B",
"r. c #946967",
"t. c #966F6E",
"y. c #89706F",
"u. c #877272",
"i. c #817C7C",
"p. c #8D7979",
"a. c #8C7373",
"s. c #997879",
"d. c #957575",
"f. c #A07777",
"g. c #A47877",
"h. c #A37F7F",
"j. c #648789",
"k. c #718083",
"l. c #7F8182",
"z. c #848080",
"x. c #9D8585",
"c. c #A18787",
"v. c #A28A8A",
"b. c #A88686",
"n. c #BA8986",
"m. c #B38E8E",
"M. c #A59898",
"N. c #B89696",
"B. c #B49998",
"V. c #B09797",
"C. c #9ABABD",
"Z. c #ABAFB1",
"A. c #A8A6A7",
"S. c #C29D9C",
"D. c #D19F9E",
"F. c #CBA7A7",
"G. c #C7A8A7",
"H. c #C9AAA9",
"J. c #C1AAAA",
"K. c #D1A2A1",
"L. c #D5ABAA",
"P. c #CFB4B3",
"I. c #C6BCBD",
"U. c #D3B5B4",
"Y. c #DAB4B3",
"T. c #DDB9B8",
"R. c #DDBAB9",
"E. c #DEBDBC",
"W. c #E1C0BF",
"Q. c #91BEC3",
"!. c #9CC8CD",
"~. c #A5C5C9",
"^. c #A7C8CC",
"/. c #CBC7C8",
"(. c #DBD9D9",
"). c #E3C6C5",
"_. c #E3C7C5",
"`. c #E2C6C5",
"'. c #E3C6C4",
/* pixels */
"* 4 $ * 4 5 4 6 4 4 5 4 A             A 8 8 8 9 t t N a A m p & ",
"4 B Z 6 B %.B *.4 C A   X o o o o o o X   A t ] C 5.9.a ( #.#.0 ",
"5 g g 4 B B h C A   O z d.D.D.D.D.D.D.d.z O   A V O.$.a ( } { 0 ",
"L 4 4 6 b n g G O z s.T.).).).).).).).).T.s.z O G V o.a ) a t v ",
"L 4 n C 6 4 G : d.T.).).).).).).).).).).).).T.d.: G p a o.$.a v ",
"L 4 B n 4 G : d.T.).).).).).).).).).).).).).).T.d.: G a o.$.y v ",
"L 4 B g K + q.T.).).).).).).).).).).).).).).).).T.q.+ K o.$.y l ",
"G 6 &.C D j x.).).).).).).).).).).).).).).).).).).x.j D o.X.t c ",
"L 6 &.P + q.T.).).).).).).).).).).).).).).).).).).T.q.+ P $.y v ",
"L 6 C A x c.).).).).).).).).).).).).).).).).).).).).c.x A *.y v ",
"L 4 P O 1.Y.T.B.x.x.v.H.'.).).).).).).'.H.v.x.x.B.T.Y.1.O P y v ",
"G 4 P O 1.L.b.2.$.f % :.G.).).).).).).G.a.>.Y + x x.L.1.O P y k ",
"G 6 P O 1.S.7.M.(.&.  j v.).).).).).).v.9.(.A.f   +.S.1.O P t l ",
"E 6 P O ,.n.=.>.z.Z   j v.P.v.u.u.v.P.v.%.9.5.%   R n.,.O P t v ",
"! 6 m > F r.R         j p.w.:     : w.p.j         R r.F > $.y v ",
"! 7 ..P O -.0.:     + =.p.;.&.i.i.&.;.p.=.+     : 0.-.O P $.y v ",
"! 6 ..m 1 F t.i.4.3.8.N.B.;.&.i.i.&.;.B.N.8.3.4.i.t.F 1  .$.y v ",
"! 6 ..m K + <.Z.!.~.I.W.U.x.w.w.w.w.x.U.W.I.~.!.Z.<.+ K  .$.y v ",
"L 6 ..m 4 2 z k.Q.^./.).).).).).).).).).)./.^.Q.k.z 2 p  .$.y k ",
"! 7 ..m 6 . 2 m j.C.I.E.).).).).).).).).E.I.C.j.m 2 # p  .$.y H ",
"! 7 Z ..7 . . 3 d @.l.J.E.).).).).).).E.J.l.@.d 3 @ # p  .*.y H ",
"^ 7 Z O.7 . . . < X d +.g.K.L.L.L.L.K.g.+.d X < . @ # p o.X.t U ",
"Q 7 ..V 7 . . . . <   o : F F F F F F : o   < . . @ # p o.$.y U ",
"^ 7 V 8 7 . . . ~ : :.w.z             z w.:.: ~ . @ # p o.$.i U ",
"/ 7 M 7 7 . . ~ : <.F.U.m.f.f.f.f.f.f.m.U.F.<.: ~ @ # p o.$.i U ",
"/ 8 O.M 7 . ; G - e.S.y.h.Y.E.E.E.E.Y.h.y.S.e.- G f # p o.X.t U ",
"/ 8 +.V 7 . ; G - e.N.7.x.'.).).).).'.x.7.N.e.- G f # p o.} t U ",
"! 8 M 7 7 . . . S + - z v.E.m.T T m.E.v.z - + S . @ # p o.} t v ",
"J 7 8 q 7 7 7 7 7 A   j v.).V.I z b.E.v.j   A 7 7 e r u u r 7 c ",
"0 M } q 6. .6.X.X.M A   z M.B.I z b.b.z   A X.' _ | | | u _ } N ",
"7 V ' 7 ` } *.] } 9 e A   X o     o X   A V W i e p $.p u { } a ",
"= t t 7 7 t i t t 7 7 7 A   > 7 t >   A t t t w 7 e ` w u p s , "
};
