/* XPM */
static char *_77489bbfce14cc5a43fa3f7b60b0499jjnKgnlrmcTPxRPb[] = {
/* columns rows colors chars-per-pixel */
"32 32 130 2 ",
"   c #090101",
".  c #0D0708",
"X  c #110707",
"o  c #140A0A",
"O  c #190D0D",
"+  c #1C1212",
"@  c #221515",
"#  c #2D1D1C",
"$  c #331F16",
"%  c #362217",
"&  c #362218",
"*  c #3B261B",
"=  c #3A281D",
"-  c #222224",
";  c #292222",
":  c #312424",
">  c #382626",
",  c #3A2B2A",
"<  c #283233",
"1  c #3A3434",
"2  c #422B1D",
"3  c #462E20",
"4  c #482F20",
"5  c #442C2C",
"6  c #4C3222",
"7  c #583B27",
"8  c #5C3E2A",
"9  c #413333",
"0  c #413B3B",
"q  c #533E3E",
"w  c #583E3E",
"e  c #65442E",
"r  c #554343",
"t  c #5D4849",
"y  c #424E50",
"u  c #555050",
"i  c #5E5352",
"p  c #5F5A5A",
"a  c #624A4A",
"s  c #6F4B4A",
"d  c #615353",
"f  c #6D5352",
"g  c #645C5C",
"h  c #755454",
"j  c #745857",
"k  c #705F5F",
"l  c #7B5C5C",
"z  c #586465",
"x  c #546769",
"c  c #656060",
"v  c #756262",
"b  c #796869",
"n  c #7F7676",
"m  c #7F7B7B",
"M  c #885E3F",
"N  c #835C5B",
"B  c #8E6242",
"V  c #906443",
"C  c #9F6F4B",
"Z  c #A5734E",
"A  c #B27C54",
"S  c #836665",
"D  c #836D6D",
"F  c #8C6B6B",
"G  c #946967",
"H  c #966F6E",
"J  c #89706F",
"K  c #877272",
"L  c #8C7373",
"P  c #817C7C",
"I  c #8D7979",
"U  c #947373",
"Y  c #997373",
"T  c #937A7A",
"R  c #997879",
"E  c #A07777",
"W  c #A47877",
"Q  c #A37F7F",
"!  c #B88157",
"~  c #BD8559",
"^  c #C1875B",
"/  c #C3895C",
"(  c #648789",
")  c #718083",
"_  c #7F8182",
"`  c #848080",
"'  c #9D8585",
"]  c #A18787",
"[  c #A98484",
"{  c #A28A8A",
"}  c #A88A8B",
"|  c #BA8986",
" . c #B38E8E",
".. c #A99191",
"X. c #A19E9F",
"o. c #B09797",
"O. c #B89696",
"+. c #B49998",
"@. c #9ABABD",
"#. c #A8A6A7",
"$. c #ABAFB1",
"%. c #C29D9C",
"&. c #D19F9E",
"*. c #CBA7A7",
"=. c #C7A8A7",
"-. c #C1AAAA",
";. c #C9AAA9",
":. c #D1A2A1",
">. c #D5ABAA",
",. c #CFB4B3",
"<. c #C6BCBD",
"1. c #D3B5B4",
"2. c #DAB4B3",
"3. c #DDBBBA",
"4. c #E1C0BF",
"5. c #91BEC3",
"6. c #9CC8CD",
"7. c #A5C5C9",
"8. c #A7C8CC",
"9. c #CBC7C8",
"0. c #D7D5D5",
"q. c #DEDDDD",
"w. c #E1C2C1",
"e. c #E2C6C4",
"r. c #E3C6C4",
"t. c #E3C7C4",
"y. c #E2C6C5",
"u. c #E3C6C5",
"i. c #E3C7C5",
"p. c #E2C5C4",
/* pixels */
"/ / / / / / / / / / ^ C 2             2 C ^ / / / / / / / / / / ",
"/ / / / / / / / ~ C 2   . X X X X X X .   2 C ~ / / / / / / / / ",
"/ / / / / / ^ Z 2   o , Y &.&.&.&.&.&.Y , o   2 Z ^ / / / / / / ",
"/ / / / / ^ Z 6 o , R 3.u.u.u.u.u.u.u.u.3.R , o 6 Z ^ / / / / / ",
"/ / / / ^ Z 6 # U 3.u.u.u.u.u.u.u.u.u.u.u.u.3.U # 6 Z ^ / / / / ",
"/ / / ^ Z 6 # U 3.u.u.u.u.u.u.u.u.u.u.u.u.u.u.3.U # 6 Z ^ / / / ",
"/ / / ! 7 O S 3.u.u.u.u.u.u.u.u.u.u.u.u.u.u.u.u.3.S O 7 ! / / / ",
"/ / ^ Z 4 : ' u.u.u.u.u.u.u.u.u.u.u.u.u.u.u.u.u.u.' : 4 Z ^ / / ",
"/ / ~ 8 o S 3.u.u.u.u.u.u.u.u.u.u.u.u.u.u.u.u.u.u.3.S o 8 ~ / / ",
"/ ^ C 2 > ] u.u.u.u.u.u.u.u.u.u.u.u.u.u.u.u.u.u.u.u.] > 2 C ^ / ",
"/ ~ 8 o l 2.3.+.' ' } ;.w.u.u.u.u.u.u.w.;.} ' ' +.3.2.l o 8 ~ / ",
"/ ~ 8 o l >.} k u ; + f =.u.u.u.u.u.u.=.L g 0 o > ' >.l o 8 ~ / ",
"/ ~ 8 o l %.v X.q.p   : { u.u.u.u.u.u.{ n 0.#.;   t %.l o 8 ~ / ",
"/ ~ 8 o h | a g ` 1   : { ,.{ K K { ,.{ i m c +   w | h o 8 ~ / ",
"/ ^ M $ 5 G w         : I D #     # D I :         w G 5 $ M ^ / ",
"/ / ~ 8 o s N #     O a T d p P P p d T a O     # N s o 8 ~ / / ",
"/ / ~ B & 5 H P x z b O.+.d p P P p d +.O.b z x P H 5 & B ~ / / ",
"/ / / ! 7 O j $.6.7.<.4.1.' D D D D ' ,.4.<.7.6.$.j O 7 ! / / / ",
"/ / / ~ B * , ) 5.8.9.u.u.u.u.u.u.u.u.u.u.9.8.5.) , * B ~ / / / ",
"/ / / / ~ B = < ( @.<.3.u.u.u.u.u.u.u.u.3.<.@.( < = B ~ / / / / ",
"/ / / / / ~ B = - y _ -.3.u.u.u.u.u.u.3.-._ y - = B ~ / / / / / ",
"/ / / / / / ~ B % . - r W :.>.>.>.>.:.W r - . % B ~ / / / / / / ",
"/ / / / / / / ~ B %   X # 5 5 5 5 5 5 # X   % B ~ / / / / / / / ",
"/ / / / / / / A e # f D ,             , D f # e A / / / / / / / ",
"/ / / / / / A e # j *.1. .E E E E E E  .1.*.j # e A / / / / / / ",
"/ / / / / / A 6 @ F %.J Q 2.3.3.3.3.2.Q J %.F @ 6 A / / / / / / ",
"/ / / / / / A 6 @ F O.v ' p.u.u.u.u.p.' v O.F @ 6 A / / / / / / ",
"/ / / / / / ^ C 3 O @ , { 3. .q q  .3.{ , @ O 3 C ^ / / / / / / ",
"/ / / / / / / ^ C 2   : { u.o.9 , [ 3.{ :   2 C ^ / / / / / / / ",
"/ / / / / / / / ^ C 2   , ..+.9 , [ { ,   2 C ^ / / / / / / / / ",
"/ / / / / / / / / ^ C 2   . X     X .   2 C ^ / / / / / / / / / ",
"/ / / / / / / / / / / C 2   $ V V $   2 C / / / / / / / / / / / "
};
