/* XPM */
static char *_d586594ab9940c7a32a79d6952f01a5pwDV7S14L2vgqGAG[] = {
/* columns rows colors chars-per-pixel */
"32 32 158 2 ",
"   c #090000",
".  c #100604",
"X  c #1B0000",
"o  c #140906",
"O  c #170B08",
"+  c #1A0D0A",
"@  c #1E100A",
"#  c #2D0000",
"$  c #250100",
"%  c #320000",
"&  c #380100",
"*  c #3B0C09",
"=  c #25150E",
"-  c #281D17",
";  c #342016",
":  c #3B2519",
">  c #3E281B",
",  c #30241C",
"<  c #3B2E24",
"1  c #322A27",
"2  c #3F3127",
"3  c #400000",
"4  c #4D0000",
"5  c #5A0000",
"6  c #5A0A08",
"7  c #630000",
"8  c #6D0000",
"9  c #780000",
"0  c #710A09",
"q  c #601F19",
"w  c #40201A",
"e  c #422B1C",
"r  c #482F1F",
"t  c #422B22",
"y  c #4F3423",
"u  c #45372B",
"i  c #513524",
"p  c #433A35",
"a  c #663C2F",
"s  c #793B32",
"d  c #534335",
"f  c #55463C",
"g  c #60402B",
"h  c #604F3E",
"j  c #734E35",
"k  c #765136",
"l  c #7C5539",
"z  c #584E48",
"x  c #744742",
"c  c #6A5644",
"v  c #6E5B48",
"b  c #705E4A",
"n  c #7D6952",
"m  c #7F6F5E",
"M  c #766C64",
"N  c #796F67",
"B  c #820000",
"V  c #8C0000",
"C  c #9B0101",
"Z  c #A30000",
"A  c #AE0000",
"S  c #B50000",
"D  c #BB0001",
"F  c #B9120F",
"G  c #A1241C",
"H  c #8B2F25",
"J  c #A12F2B",
"K  c #BF322E",
"L  c #CA0001",
"P  c #D30000",
"I  c #D90000",
"U  c #CA1E1C",
"Y  c #D61917",
"T  c #E70101",
"R  c #E70807",
"E  c #E70C09",
"W  c #E80D0C",
"Q  c #E81413",
"!  c #E81B19",
"~  c #E71714",
"^  c #E7221C",
"/  c #CF2E27",
"(  c #E92522",
")  c #E92B27",
"_  c #EA332E",
"`  c #E5352A",
"'  c #EA3B37",
"]  c #EA3F3A",
"[  c #EB3430",
"{  c #835A3D",
"}  c #C34239",
"|  c #D44339",
" . c #EA413C",
".. c #E54237",
"X. c #855A46",
"o. c #8C6141",
"O. c #936645",
"+. c #897058",
"@. c #847058",
"#. c #AE624D",
"$. c #A0704B",
"%. c #A8764F",
"&. c #AA7750",
"*. c #B27D54",
"=. c #88776E",
"-. c #857B72",
";. c #DB4A41",
":. c #EB4A44",
">. c #EB4F49",
",. c #EB554F",
"<. c #EA5A54",
"1. c #CF6E56",
"2. c #EC655E",
"3. c #ED6C64",
"4. c #ED736A",
"5. c #E67E68",
"6. c #ED7C73",
"7. c #BF865A",
"8. c #A28B6D",
"9. c #B78165",
"0. c #C3895C",
"q. c #D88569",
"w. c #EE8076",
"e. c #EF8278",
"r. c #EE897F",
"t. c #E38E7C",
"y. c #E29F7D",
"u. c #BFA581",
"i. c #BDA98F",
"p. c #DF8C82",
"a. c #EE8D83",
"s. c #EF958A",
"d. c #EF988C",
"f. c #ED9486",
"g. c #EF9E92",
"h. c #CDB18B",
"j. c #DDB28C",
"k. c #D6BA97",
"l. c #E1A48B",
"z. c #F0A69A",
"x. c #F0AFA2",
"c. c #F0B3A6",
"v. c #F1BBAD",
"b. c #F1BEB0",
"n. c #E2C49A",
"m. c #DBCEBD",
"M. c #EAC4A9",
"N. c #E7CBAB",
"B. c #E8D0AF",
"V. c #EAC3B4",
"C. c #F1C3B5",
"Z. c #F2CABB",
"A. c #E8D2B2",
"S. c #ECD8BD",
"D. c #EEDCC4",
"F. c #F2D4C4",
"G. c #F2DCCC",
"H. c #F3E6D5",
/* pixels */
"0.0.0.0.0.0.0.0.0.0.0.0.g             g 0.0.0.0.0.0.0.0.0.0.0.0.",
"0.0.0.0.0.0.0.0.*.o.{ { e             e { { o.*.0.0.0.0.0.0.0.0.",
"0.0.0.0.0.0.0.0.O.; + + .             . + + ; O.0.0.0.0.0.0.0.0.",
"0.0.0.0.0.0.*.{ y O     p M M M M x 0 3     O y { *.0.0.0.0.0.0.",
"0.0.0.0.0.7.$.:         =.H.H.H.H.d.~ B         : $.7.0.0.0.0.0.",
"0.0.0.0.7.{ r @ # 9 V V K 3.v.H.H.d.~ D V V 9 # @ r { 7.0.0.0.0.",
"0.0.0.*.$.r   X 5 L T T T Q w.C.C.w.Q Q ( ( U 6 X   r $.*.0.0.0.",
"0.0.0.{ : @ X 7 C I T T T R )  . .) R >.z.z.p.J 7 X @ : { 0.0.0.",
"0.*.O.y   $ 4 C L T ! ]  .' ~ T T T T 3.H.H.V.| C 5 #   y O.*.0.",
"0.o.; O   5 Z L T T >.v.C.c. .T T T T 3.H.H.C. .I L 9   O ; o.0.",
"0.{ +     8 D I ! >.s.H.H.G.a.:.Q T T  .r.r.4.( ~ ..H     + { 0.",
"0.{ +     8 D I ] v.H.H.H.H.H.x._ T T T R R R T ` y.+.    + { 0.",
"g e . % 7 Z P T  .C.H.H.H.H.H.c._ T T T T T Q <.f.N.i.n 2 . e g ",
"      5 S P T T  .C.H.H.H.H.H.c._ T T T T T ( z.H.H.S.n.v       ",
"      5 S P T T  .C.H.H.H.H.H.c._ T T T T T ( z.H.H.S.n.v       ",
"      5 S P T T _ d.Z.H.H.H.C.a.( T T T T T ! e.C.G.S.n.v       ",
"      5 S P T T W ) 6.H.H.F.4.( E T T T T T R ( 2.Z.S.n.v       ",
"      q } ;. .~ T T ] s.d.r.[ T T ! :.>.>.^ T T ) w.t.q.a       ",
"      c j.M.c.' T T R Q ~ Q R T T :.b.F.Z.,.T T R Q Y F 6       ",
"g e . 2 n i.M.5...W T T T T T ~ ,.s.G.H.H.g.<.Y L L Z 7 % . e g ",
"0.{ @     @.k.k.q.^ T T T T T _ c.H.H.H.H.H.V.} A A 8     @ { 0.",
"0.%.l e   < h h X.1.| L L L L / l.A.A.A.A.A.k.s 4 4 %   e l %.0.",
"0.0.0.l = o     < 8.#.C C C C G 9.u.u.u.u.u.8.<     o = l 0.0.0.",
"0.0.0.&.o.>     + < w & & & & * t u u u u u < +     > o.&.0.0.0.",
"0.0.0.0.7.j ; O         - u u u u u u -         O ; j 7.0.0.0.0.",
"0.0.0.0.0.*.o.;         c u.u.u.u.u.u.c         ; o.*.0.0.0.0.0.",
"0.0.0.0.0.0.*.j > o     m A.A.N.n.n.n.n     o > j *.0.0.0.0.0.0.",
"0.0.0.0.0.0.0.7.o.=     -.H.H.D.N.n.n.n     = o.7.0.0.0.0.0.0.0.",
"0.0.0.0.0.0.0.0.o.=     -.H.D.B.n.n.n.n     = o.0.0.0.0.0.0.0.0.",
"0.0.0.0.0.0.0.0.O.; o   N m.k.h.h.h.h.b   o ; O.0.0.0.0.0.0.0.0.",
"0.0.0.0.0.0.0.0.*.o.i   1 z f d d d d ,   i o.*.0.0.0.0.0.0.0.0.",
"0.0.0.0.0.0.0.0.0.0.k                     k 0.0.0.0.0.0.0.0.0.0."
};
