/* XPM */
static char *c3bc25f2a17846278197b943656ecb5euCaFIiPkzg0ygBrx[] = {
/* columns rows colors chars-per-pixel */
"32 32 151 2 ",
"   c #01010C",
".  c #160A0E",
"X  c #1C0B0E",
"o  c #050511",
"O  c #090612",
"+  c #090915",
"@  c #0E0E1A",
"#  c #160C13",
"$  c #1A0D14",
"%  c #051B1F",
"&  c #091A1F",
"*  c #1B1115",
"=  c #1C1812",
"-  c #12121E",
";  c #19161D",
":  c #2B0E0F",
">  c #251006",
",  c #271C0F",
"<  c #260F11",
"1  c #290F12",
"2  c #221212",
"3  c #2B1213",
"4  c #2C1719",
"5  c #311415",
"6  c #35171A",
"7  c #32191A",
"8  c #3B1E1D",
"9  c #25241F",
"0  c #3F221F",
"q  c #041C24",
"w  c #091D25",
"e  c #041E29",
"r  c #371E20",
"t  c #032024",
"y  c #03232C",
"u  c #0A232B",
"i  c #0D292F",
"p  c #14252B",
"a  c #19272A",
"s  c #1D292E",
"d  c #032531",
"f  c #0A2730",
"g  c #062B34",
"h  c #0C2C32",
"j  c #0E2E39",
"k  c #132C33",
"l  c #1C2F36",
"z  c #0C3039",
"x  c #113036",
"c  c #1A3135",
"v  c #15343B",
"b  c #1B353C",
"n  c #143838",
"m  c #242C2C",
"M  c #292C2C",
"N  c #3C2322",
"B  c #362E27",
"V  c #3F2728",
"C  c #372F29",
"Z  c #353128",
"A  c #3B332B",
"S  c #252D30",
"D  c #282F30",
"F  c #2B3334",
"G  c #2F3837",
"H  c #263639",
"J  c #21383F",
"K  c #2B393C",
"L  c #303434",
"P  c #353837",
"I  c #32373A",
"U  c #3A3739",
"Y  c #333A3B",
"T  c #3C3B3C",
"R  c #412C1C",
"E  c #422625",
"W  c #452827",
"Q  c #442729",
"!  c #442A29",
"~  c #492D2B",
"^  c #4B3626",
"/  c #42372F",
"(  c #4D312E",
")  c #42392F",
"_  c #4D3A28",
"`  c #54342D",
"'  c #533B2C",
"]  c #4E3330",
"[  c #433B31",
"{  c #423E3E",
"}  c #563530",
"|  c #583730",
" . c #553C34",
".. c #5B3B35",
"X. c #5B3B39",
"o. c #593D3B",
"O. c #5F3E3A",
"+. c #603D38",
"@. c #3B413F",
"#. c #5A422E",
"$. c #5B4332",
"%. c #5E4039",
"&. c #614835",
"*. c #60413A",
"=. c #62413D",
"-. c #64433F",
";. c #644B39",
":. c #1B3640",
">. c #1C3740",
",. c #1D3940",
"<. c #243C43",
"1. c #2D3C42",
"2. c #343E42",
"3. c #3A3E40",
"4. c #3E3F41",
"5. c #423F41",
"6. c #334143",
"7. c #364042",
"8. c #3C4244",
"9. c #394447",
"0. c #35424A",
"q. c #3F4A4A",
"w. c #454344",
"e. c #454947",
"r. c #444549",
"t. c #48474A",
"y. c #404848",
"u. c #42494B",
"i. c #414B4A",
"p. c #424B4B",
"a. c #404A4C",
"s. c #4B4A49",
"d. c #504B48",
"f. c #404950",
"g. c #4F4E53",
"h. c #545155",
"j. c #545354",
"k. c #565354",
"l. c #555556",
"z. c #595553",
"x. c #5A5756",
"c. c #59575A",
"v. c #5D575B",
"b. c #5A595A",
"n. c #5C5A5B",
"m. c #5F5D5F",
"M. c #6F4D49",
"N. c #656366",
"B. c #65666A",
"V. c #69686C",
"C. c #777376",
/* pixels */
"> q & > q w q q q q w q w w q q q u u u u u u i k k J b R F v = ",
"q U P q U z.U b.q T v.U x.v.T T F T { $.P Y k 3.T N.C.b >.g.g.s ",
"w m m q U U M T % D U T M m m M F F F F F F k H Y t.h.b >.9.7.a ",
"' q q q S D m m q q q q q q q t u u u u u f f H I Y y.b ,.b k A ",
"' q D T q q q q N N ` ` N N N N  .E V ! 7 ! r p i g v b y.h.c A ",
"' q U D q N ( ` ` ` ` ` ` ` ` } ..' ..W W ..O.O.%.*.o.b a.l.l A ",
"' q U m q ] } } } } ` ` ` ` ` | ....W X...O.+.+.=.-.M.b a.l.l C ",
"^ q n.T e < : 3 : : E : 1 0 E 3 3 3 3 5 5 5 ~ 8 6 6 E b y.y.k Z ",
"' q m.T e V E 3 E E E E 1 N E E W 3 Q ! ~ ~ 8 W ( ] o.n y.l.l A ",
"' q T F q N E E 3 E E E 3 N E E W 3 W W ~ 7 W ~ ~ (  .c q.x.l A ",
"' q m.T q   < 3 X 3 1 3 3 X 3 3 3 X 3 3 4 2 4 7 7 7 ; b q.h.l A ",
"^ q T F q     3 3 X 3 3 1 X < 3 3 $ 3 3 2 4 7 7 7 # - :.q.h.l B ",
"^ q 5.F q       $ #   * #   # $   # $   * $ * @ + + - :.f.t.k C ",
" .e L F q         # .   #   # $   $   # $ O O o o + - b a.y.k A ",
"$.e F F q                                 o o o o + - v y.h.l A ",
"$.e 5.F q                               o o o o o + - v y.h.l A ",
"$.e w.F q                                   o o o + - v q.h.l A ",
"$.e w.F q                                     o o + - v q.h.l A ",
"' e w.F q                                     o o + - v q.h.l B ",
"$.u w.F e                                       o o @ v q.h.l / ",
"$.u I w.u                                         + @ v q.x.l / ",
"&.y I e.u                                         + @ v y.y.k ) ",
"#.y w.Y y                                         + @ v y.h.l [ ",
"&.u Y u y                                         + @ v y.l.c [ ",
";.u K y y                                         + @ v y.l.c [ ",
";.u s.K y                                         + @ v a.y.k [ ",
";.u d.Y y                                         + @ v a.9.k [ ",
"$.u G u y                                         + @ v a.9.k A ",
"_ y u d y y y y y y y y y y y y y y y y y y y y y j j z z j y Z ",
"p K 9.d B.q.V.y.r.K K K K y.I K y.r.r.r.r.I y.2.1.0.0.0.z 1.9.H ",
"y Y 2.y <.9.c.4.8.i h h h k k k 8.8.8.8.8.Y @.c h v h.v z 6.8.b ",
", k k y d k c k k y y y y y y y k k k k k k k g y j <.g z v x 9 "
};
