/* XPM */
static char *ff017eb9c61a475daf760cb143b5bf3duLvpqq5nhz6Kddoy[] = {
/* columns rows colors chars-per-pixel */
"32 32 248 2 ",
"   c #C3895C",
".  c #6A4D38",
"X  c #272020",
"o  c #272121",
"O  c #272120",
"+  c #42322A",
"@  c #BC8359",
"#  c #73543D",
"$  c #262020",
"%  c #7D5A40",
"&  c #AA7953",
"*  c #5A4333",
"=  c #42332B",
"-  c #3A2C29",
";  c #493632",
":  c #4D3935",
">  c #56403B",
",  c #392B28",
"<  c #312724",
"1  c #312624",
"2  c #382B27",
"3  c #584233",
"4  c #45352C",
"5  c #382B28",
"6  c #483632",
"7  c #493633",
"8  c #493732",
"9  c #372A27",
"0  c #48372C",
"q  c #7C5A40",
"w  c #A27450",
"e  c #6A4D3A",
"r  c #2E2523",
"t  c #3A2D2A",
"y  c #42322E",
"u  c #4D3934",
"i  c #58403B",
"p  c #59403B",
"a  c #5C423D",
"s  c #644942",
"d  c #543E38",
"f  c #40302C",
"g  c #362927",
"h  c #352825",
"j  c #2E2423",
"k  c #4C3732",
"l  c #4A3632",
"z  c #352927",
"x  c #2F2624",
"c  c #3F2F2B",
"v  c #533C38",
"b  c #59413B",
"n  c #5A413C",
"m  c #684B44",
"M  c #533D38",
"N  c #3E2E2B",
"B  c #362926",
"V  c #4A3733",
"C  c #5D433D",
"Z  c #3E2F2C",
"A  c #58403A",
"S  c #664A44",
"D  c #58413C",
"F  c #543E39",
"G  c #694C46",
"H  c #674B44",
"J  c #5A4332",
"K  c #3A2C2A",
"L  c #4E3935",
"P  c #6F5049",
"I  c #6A4C46",
"U  c #59403A",
"Y  c #674A44",
"T  c #463532",
"R  c #614740",
"E  c #513B37",
"W  c #2D2422",
"Q  c #6C4E47",
"!  c #624741",
"~  c #382C2A",
"^  c #3F2F2C",
"/  c #60453F",
"(  c #5E443E",
")  c #493733",
"_  c #2C2422",
"`  c #2F2523",
"'  c #513C37",
"]  c #5C433D",
"[  c #604540",
"{  c #5B433D",
"}  c #3E2F2B",
"|  c #6C4F47",
" . c #4D3834",
".. c #483733",
"X. c #634842",
"o. c #5C433C",
"O. c #5B413C",
"+. c #604640",
"@. c #5E443F",
"#. c #372926",
"$. c #362826",
"%. c #352926",
"&. c #40312E",
"*. c #6D4E48",
"=. c #674A45",
"-. c #58413B",
";. c #3A2B28",
":. c #5D433E",
">. c #684B45",
",. c #3D2F2A",
"<. c #342825",
"1. c #3D2F2C",
"2. c #45332F",
"3. c #59413A",
"4. c #5F443F",
"5. c #6D4F48",
"6. c #342925",
"7. c #322825",
"8. c #3E2E2C",
"9. c #5B423C",
"0. c #5F453F",
"q. c #3D2E2A",
"w. c #503A35",
"e. c #2D2423",
"r. c #352826",
"t. c #302724",
"y. c #5D4534",
"u. c #3F2F2D",
"i. c #563F30",
"p. c #936847",
"a. c #3E2F2D",
"s. c #332925",
"d. c #2F2423",
"f. c #282220",
"g. c #5F4532",
"h. c #9E6F4B",
"j. c #856044",
"k. c #594338",
"l. c #644842",
"z. c #372826",
"x. c #342824",
"c. c #4C382C",
"v. c #845E41",
"b. c #513D38",
"n. c #694B45",
"m. c #614640",
"M. c #59403C",
"N. c #533E31",
"B. c #A87751",
"V. c #332825",
"C. c #473430",
"Z. c #382A27",
"A. c #2D2622",
"S. c #463330",
"D. c #654943",
"F. c #513B36",
"G. c #3B2C29",
"H. c #42312D",
"J. c #3A2B29",
"K. c #483531",
"L. c #3A2D29",
"P. c #312725",
"I. c #262120",
"U. c #493631",
"Y. c #4B3833",
"T. c #44322F",
"R. c #4E3834",
"E. c #503B37",
"W. c #4F3935",
"Q. c #43322E",
"!. c #45322E",
"~. c #4E3A35",
"^. c #563F39",
"/. c #563F38",
"(. c #563E39",
"). c #6A4D46",
"_. c #453230",
"`. c #543D38",
"'. c #523C37",
"]. c #4F3A35",
"[. c #302624",
"{. c #3D2E2B",
"}. c #3B2D29",
"|. c #3E2E2A",
" X c #43312D",
".X c #583F3A",
"XX c #41302D",
"oX c #684B36",
"OX c #403129",
"+X c #483530",
"@X c #3F2E2B",
"#X c #322724",
"$X c #44322E",
"%X c #41302C",
"&X c #503A36",
"*X c #43312E",
"=X c #8D6342",
"-X c #48362A",
";X c #463430",
":X c #292221",
">X c #533C37",
",X c #493530",
"<X c #976A47",
"1X c #5A4331",
"2X c #372B27",
"3X c #3A2C28",
"4X c #503B35",
"5X c #282120",
"6X c #332624",
"7X c #523B36",
"8X c #523B37",
"9X c #C2885C",
"0X c #9D6E4A",
"qX c #5D4433",
"wX c #2B2321",
"eX c #44332F",
"rX c #46332F",
"tX c #825C3F",
"yX c #634835",
"uX c #2A2321",
"iX c #2A2320",
"pX c #3D2D2A",
"aX c #3C2D2A",
"sX c #3A2A28",
"dX c #B27D54",
"fX c #825C3E",
"gX c #584030",
"hX c #322824",
"jX c #3A2E26",
"kX c #9A6D49",
"lX c #845C3F",
"zX c #4D3A2E",
"xX c #49362A",
"cX c #5A4231",
"vX c #8D6343",
"bX c #9B6D49",
"nX c #815B3E",
"mX c #4C382B",
"MX c #3D2E28",
"NX c #3F3029",
"BX c #3A2C27",
"VX c #B68056",
"CX c #8F6443",
"ZX c #BA8358",
"AX c #AE7A52",
"SX c #584130",
"DX c #684B35",
"FX c #614733",
/* pixels */
"            . X o O O O o X O O O + @   # $ O O O o X O O %     ",
"      & * * = - ; ; ; ; : > , < 1 2 3 * 4 5 ; ; ; 6 7 8 9 0 q   ",
"    w e r t y u i p p i a s d f g h r j - k p p p p p p l z *   ",
"  & e x c v b i p i b p p n m M N B B B V C p i a a p p p Z *   ",
"  * j c p p p p p A p p i p p S D B B B F G p p H S p p b Z *   ",
"  J K v p p p p p p p b p p p a L B g B F P I a a a U p Y T *   ",
"  * Z a S a p p p p p p p p p R E W W h F Q ! n i p a S F ~ *   ",
"  * ^ a H a p b U p p p p p / ( ) _ W ` ' G p U p ] [ { } r *   ",
"  * Z i p p U U p p p p p n |  .B B g _ ..X.o.p O.+.@.#.B r *   ",
"  * ^ p p p p U p p p p U n Q u $.B B %.1 &.*.a =.-.;.B #.r *   ",
"  J Z p p U b p p p p p :.>.u ,.B $.B g <.z 1.f 2.f $.B B r *   ",
"  * Z p p 3.p p p -.p p 4.5.f B B B B B B 6.r ` 7.B B B g r *   ",
"  J 8.p p p p p p p p p 9.0.q.B B B B B B B %._ ` <.B g #.r J   ",
"  * Z p p p p p U p p p w.B B B B B B B B B B B W e.z B r.t.y.  ",
"  * u.p p p p p p p p p w.B g B $.B B B #.B #.#.<.` _ B _ i.p.  ",
"  * a.p 3.p p p b p p / n B $.B g B B B B B #.B B s.d.W f.g.h.  ",
"j.k.: i b [ ] p p p i l.+.B z.B B B B B B B B B B B x.W W c.v.  ",
"O b.+.p p n.m.p p U p 0.M.B B #.B B B B B B B B B B B B g ` N.B.",
"O V.C.U U n A p p p p ; Z.B $.B $.$.B B #.B B B B B B B B B s.A.",
"o 1 S.p p p p p i p D.F.g B B g z.B B B $.g B B B g B B B #.1 O ",
"O 1 S.3.p p p i p p G F $.B B B B B B B B G.C., H.f J.K.L.B P.I.",
"O 1 U.( b p p p n 0.0.Y.#.B B B B $.B B G.T.R.H.E.W.Q.L !.G.1 O ",
"o 1 ~.S ^./.(.(.p )._.r.B B B B 9 2 B g C.R.G.`.p p '., ].2.1 O ",
"O [.;.{.G.G.G.G.}.|.x ` B B B B  XW.9 #., H.`.i b p .X`.XX2 1 X ",
"oXOX< $.B +X^ @X8 Z.#X` ` B $.$XK.%X#.B H.&Xb b p p `.*Xl f 1 O ",
"=X-Xr $.B ;XC.C.; 2.- ` :X[.r.H.H.B B B f W.p p p >XU.2.,X@X1 O ",
"<X1X2X<.B B ;X+X3X4XN [.:X5X< 6X6.B B B B N 7X8X8XU.XX8XH., 1 O ",
"9X0XqXwXB B g B B #.B B #XO O O W B B B #.#.#.#.#.eX8X9 &XrX1 O ",
"  h.tXyXuXiXuXiXW %.B #.#XO O O f.W %.B B B B B B , pXB aXsX[.O ",
"  dX0XfXg.g.g.g.gXhXr r jXg.g.g.g.i.t.j #XB B B 1 1 #.B B B 1 O ",
"    dXkX=X=X=X=XlXzXxX-XcXvXbXh.<XnXmX-XMX1 1 1 OXNX1 1 1 1 BX-X",
"      VX=X=X=X=X=X=X=X=X=XCXZX  AX=X=X=XSXO O o DXFXO O O O -X=X"
};
